<svg width="32" height="32" viewBox="0 0 8.467 8.467" xmlns="http://www.w3.org/2000/svg">
    <ellipse cx="4.233" cy="4.233" rx="3.952" ry="3.952" opacity=".703" fill="none" stroke="#3458d4" stroke-width=".564" />
    <path d="M2.031 6.17q.078 0 .18.117.323.353.788.568.469.21.925.21.503 0 .503-.305 0-.193-.176-.434-.177-.245-.843-.964-.84-.907-1.119-1.346-.37-.58-.37-1.105 0-.792.706-1.295.692-.494 1.707-.494.71 0 1.303.288.224.112.383.258.164.146.164.245 0 .047-.048.09-.043.039-.09.039-.073 0-.215-.133-.232-.22-.61-.362-.38-.146-.728-.146-.215 0-.352.095-.134.09-.134.236 0 .177.168.43.168.254.568.676 1.264 1.346 1.548 1.815.297.494.297.954 0 .392-.21.74-.212.349-.586.572-.714.426-1.742.426-.946 0-1.664-.49-.503-.344-.503-.538 0-.056.043-.099.047-.047.107-.047z" fill="#3458d4" />
</svg>