<svg width="399.181" height="75.458" viewBox="0 0 105.617 19.965" xmlns="http://www.w3.org/2000/svg">
    <path d="M38.011 6.102l-3.807 12.7h-2.108l-2.617-9.091q-.15-.52-.199-1.178h-.05q-.037.446-.26 1.153l-2.84 9.116h-2.034l-3.845-12.7h2.134l2.629 9.55q.124.434.173 1.14h.1q.037-.545.223-1.165l2.927-9.525h1.86l2.63 9.575q.124.458.186 1.14h.099q.025-.483.21-1.14l2.58-9.575zm12.899 12.7h-2.034v-7.243q0-4.043-2.952-4.043-1.525 0-2.53 1.153-.992 1.141-.992 2.89v7.243h-2.034v-12.7h2.034V8.21h.05q1.438-2.406 4.167-2.406 2.083 0 3.187 1.352 1.104 1.34 1.104 3.882zm28.017 0h-2.034v-2.01h-.05Q75.578 19.1 72.924 19.1q-4.54 0-4.54-5.408v-7.59h2.022v7.268q0 4.018 3.076 4.018 1.488 0 2.443-1.091.968-1.104.968-2.878V6.102h2.034zm6.189-1.836h-.05v1.836h-2.034V0h2.034v8.334h.05q1.5-2.53 4.39-2.53 2.443 0 3.82 1.712 1.389 1.699 1.389 4.564 0 3.187-1.55 5.11-1.55 1.91-4.242 1.91-2.518 0-3.807-2.134zm-.05-5.122v1.774q0 1.575 1.017 2.679 1.03 1.091 2.604 1.091 1.848 0 2.89-1.414 1.054-1.414 1.054-3.931 0-2.121-.98-3.324-.98-1.203-2.653-1.203-1.774 0-2.853 1.24-1.079 1.228-1.079 3.088zm12.13 6.5V16.16q1.661 1.228 3.658 1.228 2.68 0 2.68-1.786 0-.508-.237-.856-.223-.36-.62-.632-.384-.273-.917-.484-.521-.223-1.13-.459-.842-.335-1.487-.67-.633-.347-1.067-.768-.422-.434-.645-.98-.21-.546-.21-1.278 0-.893.409-1.575.409-.694 1.091-1.153.682-.471 1.55-.707.88-.236 1.811-.236 1.65 0 2.952.57v2.06q-1.402-.918-3.225-.918-.57 0-1.03.136-.458.124-.793.36-.322.236-.508.57-.174.323-.174.72 0 .496.174.83.186.336.533.596.347.26.843.471.496.211 1.129.46.843.322 1.513.669.67.335 1.14.769.472.422.72.98.26.558.26 1.327 0 .942-.421 1.637-.41.694-1.104 1.153-.694.46-1.6.682-.905.224-1.897.224-1.96 0-3.399-.757zM9.851.288a9.892 9.892 0 00-4.17.926c-1.928.906-3.436 2.31-4.446 4.148C.42 6.853 0 8.451 0 10.107c0 1.322.267 2.614.79 3.848.847 2.02 2.302 3.623 4.274 4.73a9.635 9.635 0 004.793 1.28 9.826 9.826 0 004.565-1.127c1.955-1.013 3.437-2.54 4.365-4.504a9.564 9.564 0 00.938-4.115c0-1.74-.415-3.38-1.237-4.87v-.001C17.462 3.493 15.94 2.088 14 1.199l-.002-.002A9.912 9.912 0 009.858.29h-.005zm.005 1.729h.004c1.183 0 2.312.249 3.42.754 1.63.747 2.837 1.862 3.696 3.414.682 1.238 1.02 2.565 1.02 4.033a7.782 7.782 0 01-.774 3.377c-.776 1.641-1.946 2.851-3.596 3.707h-.002a8.025 8.025 0 01-3.768.931c-1.392 0-2.687-.343-3.939-1.052l-.002-.002h-.002c-1.68-.942-2.828-2.215-3.533-3.897v-.002a8.033 8.033 0 01.37-7.086C3.596 4.66 4.79 3.544 6.417 2.78a8.1 8.1 0 013.441-.761zM53.53 15.714q.223 0 .52.335.93 1.017 2.27 1.637 1.352.607 2.667.607 1.45 0 1.45-.88 0-.558-.508-1.253-.508-.707-2.43-2.778-2.42-2.617-3.225-3.882-1.067-1.674-1.067-3.187 0-2.282 2.034-3.733 1.997-1.427 4.924-1.427 2.046 0 3.758.831.645.323 1.103.745.472.421.472.706 0 .137-.137.26-.124.113-.26.113-.21 0-.62-.385-.67-.632-1.761-1.042-1.092-.421-2.096-.421-.62 0-1.017.272-.385.26-.385.683 0 .508.484 1.24t1.637 1.947q3.646 3.882 4.465 5.234.856 1.426.856 2.753 0 1.129-.608 2.133-.608 1.005-1.687 1.65Q62.31 19.1 59.346 19.1q-2.728 0-4.8-1.414-1.45-.992-1.45-1.55 0-.162.123-.286.137-.136.31-.136z" fill="#3458d3" />
</svg>